<svg xmlns="http://www.w3.org/2000/svg" id="Layer_1" x="0" y="0" viewBox="0 0 124 127.1"><ellipse cx="62" cy="63.1" rx="62" ry="62" style="fill:#d3dee6"/><g class="cls-3" transform="matrix(1, 0, 0, 1, 0, -68)"><path d="M63.95,105.89l4-9.81V83.55H62.05v23.61A2,2,0,0,0,63.95,105.89Z" transform="translate(0 69.26)" style="fill:#90acc1"/><path d="M56.14,83.55V96.08l4,9.81a2,2,0,0,0,1.9,1.27V83.55H56.14Z" transform="translate(0 69.26)" style="fill:#b0c5d3"/><rect width="17.1" height="101.98" x="62.05" style="fill:#b0c5d3"/><rect width="17.1" height="101.98" x="44.95" style="fill:#fff"/><path d="M 62 101.9800033569336 L 44.95000076293945 101.9800033569336 L 48.290000915527344 117.7699966430664 L 53.29999923706055 161.8699951171875 L 62 161.8699951171875 L 62 101.9800033569336 Z" style="fill:#668daa"/><path d="M 62 101.9800033569336 L 79.1500015258789 101.9800033569336 L 75.80999755859375 117.7699966430664 L 70.80000305175781 161.8699951171875 L 62 161.8699951171875 L 62 101.9800033569336 Z" style="fill:#4f748e"/></g></svg>